<svg width="227" height="230" viewBox="0 0 227 230" fill="none" xmlns="http://www.w3.org/2000/svg">
<g clip-path="url(#clip0_27853_961)">
<path d="M204.96 146.6C208.68 146.6 211.71 149.63 211.71 153.35C211.71 157.07 208.68 160.09 204.96 160.09C201.24 160.09 198.22 157.06 198.22 153.35C198.22 149.64 201.24 146.6 204.96 146.6Z" fill="black"/>
<path d="M170.41 186.7C166.69 186.7 163.66 183.68 163.66 179.96C163.66 176.24 166.69 173.21 170.41 173.21C174.13 173.21 177.15 176.24 177.15 179.96C177.15 183.68 174.13 186.7 170.41 186.7Z" fill="black"/>
<path d="M226.35 72.06V177.13L135.53 229.59V203.77L160.85 189.16C163.27 191.67 166.65 193.24 170.41 193.24C177.73 193.24 183.69 187.28 183.69 179.96C183.69 172.64 177.73 166.67 170.41 166.67C163.09 166.67 157.12 172.63 157.12 179.96C157.12 181.96 157.58 183.85 158.38 185.56L135.53 198.74V124.55L202.72 85.72V140.27C196.47 141.34 191.68 146.79 191.68 153.35C191.68 160.67 197.64 166.63 204.96 166.63C212.28 166.63 218.25 160.67 218.25 153.35C218.25 146.74 213.4 141.27 207.08 140.25V83.2L226.35 72.06Z" fill="black"/>
<path d="M100.2 160.24C96.4802 160.24 93.4502 157.22 93.4502 153.5C93.4502 149.78 96.4802 146.75 100.2 146.75C103.92 146.75 106.95 149.78 106.95 153.5C106.95 157.22 103.92 160.24 100.2 160.24Z" fill="#40A1D5"/>
<path d="M129.53 124.34V198.89L38.6802 145.54V99.02L58.5002 111.7V133.79L87.2202 150.72C87.0202 151.62 86.9202 152.55 86.9202 153.5C86.9202 160.82 92.8802 166.78 100.2 166.78C107.52 166.78 113.48 160.82 113.48 153.5C113.48 146.18 107.53 140.22 100.2 140.22C95.4002 140.22 91.2002 142.78 88.8702 146.61L62.8602 131.27V109.32L38.6802 93.83V71.88L129.53 124.34Z" fill="#40A1D5"/>
<path d="M38.6802 150.59L129.53 203.92V229.59L38.6802 177.13V150.59Z" fill="#40A1D5"/>
<path d="M129.02 83.77C125.3 83.77 122.28 80.75 122.28 77.03C122.28 73.31 125.3 70.28 129.02 70.28C132.74 70.28 135.77 73.31 135.77 77.03C135.77 80.75 132.74 83.77 129.02 83.77Z" fill="#40A1D5"/>
<path d="M107.73 28.93L197.97 81.53L132.71 119.24L42.0098 66.87L74.9098 47.88L116.73 72.02C116.1 73.56 115.74 75.25 115.74 77.03C115.74 84.35 121.7 90.31 129.02 90.31C136.34 90.31 142.31 84.35 142.31 77.03C142.31 69.71 136.35 63.74 129.02 63.74C125.04 63.74 121.46 65.52 119.03 68.31L79.2798 45.36L107.73 28.93Z" fill="#40A1D5"/>
<path d="M223.2 66.96L202.33 79.02L112.07 26.43L132.53 14.62L223.2 66.96Z" fill="#40A1D5"/>
<path d="M104.69 27.16L107.73 28.93L112.07 26.43L109.02 24.65L104.69 27.16Z" fill="white"/>
<path d="M99.68 19.22C100.57 17.43 101.1 15.43 101.1 13.29C101.1 5.97 95.13 0 87.81 0C80.49 0 74.52 5.97 74.52 13.29C74.52 20.61 80.49 26.58 87.81 26.58C91.43 26.58 94.72 25.12 97.11 22.74L108.07 29.12L112.41 26.61L99.68 19.2V19.22ZM94.02 15.91L93.98 15.89L93.06 17.48C91.82 19.03 89.94 20.05 87.81 20.05C84.08 20.05 81.05 17.02 81.05 13.29C81.05 9.56 84.08 6.54 87.81 6.54C91.54 6.54 94.56 9.57 94.56 13.29C94.56 14.23 94.36 15.1 94.02 15.9V15.91Z" fill="#40A1D5"/>
<path d="M38.6601 93.82L38.6401 98.99L38.6801 99.02V93.83H38.6601V93.82Z" fill="white"/>
<path d="M25.76 85.52C26.28 84.1 26.57 82.58 26.57 80.97C26.57 73.65 20.62 67.7 13.3 67.7C5.98 67.7 0 73.64 0 80.97C0 88.3 5.97 94.26 13.29 94.26C17.45 94.26 21.16 92.32 23.6 89.31L36.5 97.57L38.64 98.99L38.7 93.8L25.76 85.52ZM13.29 87.72C9.56 87.72 6.53 84.69 6.53 80.97C6.53 77.25 9.56 74.24 13.29 74.24C17.02 74.24 20.02 77.25 20.02 80.97C20.02 84.69 17.01 87.72 13.29 87.72Z" fill="#40A1D5"/>
<path d="M32.23 141.75V146.8L38.68 150.59V145.54L32.23 141.75Z" fill="white"/>
<path d="M27.55 139.22C28.03 137.83 28.31 136.34 28.31 134.77C28.31 127.45 22.36 121.5 15.04 121.5C7.72 121.5 1.75 127.45 1.75 134.77C1.75 142.09 7.72 148.06 15.04 148.06C19.25 148.06 22.99 146.1 25.43 143.03L38.57 150.74V145.68L27.54 139.21L27.55 139.22ZM15.05 141.53C11.32 141.53 8.29 138.5 8.29 134.77C8.29 131.04 11.32 128.04 15.05 128.04C18.78 128.04 21.78 131.07 21.78 134.77C21.78 138.47 18.77 141.53 15.05 141.53Z" fill="#40A1D5"/>
</g>
<defs>
<clipPath id="clip0_27853_961">
<rect width="226.35" height="229.59" fill="white"/>
</clipPath>
</defs>
</svg>
