<svg width="292" height="80" viewBox="0 0 292 80" fill="none" xmlns="http://www.w3.org/2000/svg">
<g clip-path="url(#clip0_28030_3)">
<path d="M71.4178 51.0824C72.7141 51.0824 73.7699 52.1382 73.7699 53.4344C73.7699 54.7307 72.7141 55.783 71.4178 55.783C70.1216 55.783 69.0693 54.7272 69.0693 53.4344C69.0693 52.1417 70.1216 51.0824 71.4178 51.0824Z" fill="black"/>
<path d="M59.379 65.0552C58.0827 65.0552 57.0269 64.0029 57.0269 62.7067C57.0269 61.4104 58.0827 60.3546 59.379 60.3546C60.6752 60.3546 61.7275 61.4104 61.7275 62.7067C61.7275 64.0029 60.6752 65.0552 59.379 65.0552Z" fill="black"/>
<path d="M78.8711 25.1091V61.7205L47.2251 80.0001V71.0032L56.0478 65.9124C56.8911 66.787 58.0688 67.334 59.379 67.334C61.9296 67.334 64.0064 65.2573 64.0064 62.7066C64.0064 60.156 61.9296 58.0758 59.379 58.0758C56.8283 58.0758 54.7481 60.1525 54.7481 62.7066C54.7481 63.4035 54.9084 64.0621 55.1871 64.6579L47.2251 69.2505V43.3992L70.6373 29.8689V48.8768C68.4595 49.2496 66.7904 51.1486 66.7904 53.4345C66.7904 55.9851 68.8672 58.0618 71.4178 58.0618C73.9685 58.0618 76.0487 55.9851 76.0487 53.4345C76.0487 51.1312 74.3587 49.2252 72.1565 48.8698V28.9908L78.8711 25.1091Z" fill="black"/>
<path d="M34.9145 55.8353C33.6182 55.8353 32.5624 54.7829 32.5624 53.4867C32.5624 52.1905 33.6182 51.1347 34.9145 51.1347C36.2107 51.1347 37.2665 52.1905 37.2665 53.4867C37.2665 54.7829 36.2107 55.8353 34.9145 55.8353Z" fill="#40A1D5"/>
<path d="M45.1344 43.326V69.3028L13.478 50.7131V34.5033L20.3842 38.9216V46.6188L30.3916 52.518C30.3219 52.8316 30.2871 53.1557 30.2871 53.4867C30.2871 56.0374 32.3638 58.1141 34.9145 58.1141C37.4651 58.1141 39.5418 56.0374 39.5418 53.4867C39.5418 50.9361 37.4686 48.8593 34.9145 48.8593C33.2419 48.8593 31.7784 49.7514 30.9665 51.0859L21.9034 45.7407V38.0923L13.478 32.6948V25.0464L45.1344 43.326Z" fill="#40A1D5"/>
<path d="M13.478 52.4727L45.1344 71.0554V80.0001L13.478 61.7205V52.4727Z" fill="#40A1D5"/>
<path d="M44.9567 29.1895C43.6605 29.1895 42.6082 28.1372 42.6082 26.8409C42.6082 25.5447 43.6605 24.4889 44.9567 24.4889C46.2529 24.4889 47.3087 25.5447 47.3087 26.8409C47.3087 28.1372 46.2529 29.1895 44.9567 29.1895Z" fill="#40A1D5"/>
<path d="M37.5383 10.0806L68.9822 28.4089L46.2425 41.5489L14.6383 23.3007L26.1022 16.6837L40.6743 25.0952C40.4548 25.6318 40.3293 26.2207 40.3293 26.8409C40.3293 29.3916 42.4061 31.4683 44.9567 31.4683C47.5074 31.4683 49.5876 29.3916 49.5876 26.8409C49.5876 24.2903 47.5108 22.2101 44.9567 22.2101C43.5699 22.2101 42.3225 22.8303 41.4757 23.8025L27.6249 15.8056L37.5383 10.0806Z" fill="#40A1D5"/>
<path d="M77.7735 23.3321L70.5014 27.5343L39.0505 9.20947L46.1798 5.09431L77.7735 23.3321Z" fill="#40A1D5"/>
<path d="M36.479 9.46384L37.5383 10.0806L39.0505 9.20947L37.9878 8.58923L36.479 9.46384Z" fill="white"/>
<path d="M34.7333 6.69716C35.0434 6.07344 35.2281 5.37655 35.2281 4.63087C35.2281 2.08023 33.1478 0 30.5972 0C28.0466 0 25.9663 2.08023 25.9663 4.63087C25.9663 7.18151 28.0466 9.26174 30.5972 9.26174C31.8586 9.26174 33.005 8.75301 33.8378 7.9237L37.6567 10.1468L39.169 9.27219L34.7333 6.6902V6.69716ZM32.7611 5.5438L32.7471 5.53683L32.4265 6.09086C31.9945 6.63096 31.3394 6.98638 30.5972 6.98638C29.2975 6.98638 28.2417 5.93058 28.2417 4.63087C28.2417 3.33116 29.2975 2.27885 30.5972 2.27885C31.8969 2.27885 32.9492 3.33464 32.9492 4.63087C32.9492 4.95841 32.8795 5.26156 32.7611 5.54032V5.5438Z" fill="#40A1D5"/>
<path d="M13.471 32.6914L13.464 34.4928L13.478 34.5033V32.6948H13.471V32.6914Z" fill="white"/>
<path d="M8.97601 29.7992C9.1572 29.3044 9.25825 28.7748 9.25825 28.2138C9.25825 25.6632 7.18499 23.5899 4.63435 23.5899C2.08372 23.5899 0 25.6597 0 28.2138C0 30.7679 2.08023 32.8447 4.63087 32.8447C6.08041 32.8447 7.37315 32.1687 8.22336 31.1199L12.7183 33.998L13.464 34.4928L13.4849 32.6844L8.97601 29.7992ZM4.63087 30.5658C3.33116 30.5658 2.27536 29.51 2.27536 28.2138C2.27536 26.9176 3.33116 25.8688 4.63087 25.8688C5.93058 25.8688 6.97592 26.9176 6.97592 28.2138C6.97592 29.51 5.92709 30.5658 4.63087 30.5658Z" fill="#40A1D5"/>
<path d="M11.2305 49.3925V51.1521L13.478 52.4727V50.7131L11.2305 49.3925Z" fill="white"/>
<path d="M9.59974 48.5109C9.76699 48.0265 9.86456 47.5074 9.86456 46.9603C9.86456 44.4097 7.79129 42.3364 5.24066 42.3364C2.69002 42.3364 0.609787 44.4097 0.609787 46.9603C0.609787 49.5109 2.69002 51.5912 5.24066 51.5912C6.70762 51.5912 8.01082 50.9082 8.86103 49.8385L13.4396 52.525V50.7619L9.59625 48.5074L9.59974 48.5109ZM5.24414 49.3158C3.94443 49.3158 2.88863 48.26 2.88863 46.9603C2.88863 45.6606 3.94443 44.6152 5.24414 44.6152C6.54385 44.6152 7.58919 45.671 7.58919 46.9603C7.58919 48.2496 6.54037 49.3158 5.24414 49.3158Z" fill="#40A1D5"/>
</g>
<g clip-path="url(#clip1_28030_3)">
<path d="M118.301 43.4479H104.851C103.116 43.4479 101.513 43.1936 100.039 42.6779C98.5654 42.1656 97.2971 41.42 96.2308 40.4373C95.1646 39.4547 94.3283 38.263 93.722 36.8623C93.1157 35.4615 92.8125 33.8621 92.8125 32.0641C92.8125 30.3916 93.1192 28.8549 93.7359 27.4542C94.3527 26.0534 95.1924 24.8513 96.2587 23.8478C97.3249 22.8442 98.5793 22.0672 100.022 21.5132C101.464 20.9591 103.012 20.6838 104.663 20.6838C106.315 20.6838 107.862 20.9661 109.305 21.5306C110.747 22.0951 112.002 22.8791 113.068 23.8826C114.134 24.8861 114.974 26.0813 115.591 27.4716C116.207 28.8619 116.514 30.3916 116.514 32.0641C116.514 32.8586 116.423 33.6322 116.249 34.3848C116.071 35.1375 115.803 35.8483 115.451 36.5173C115.096 37.1863 114.636 37.7857 114.071 38.3188C113.507 38.8519 112.848 39.2875 112.096 39.6185V39.6812H118.305V43.4445L118.301 43.4479ZM97.8894 32.0641C97.8894 33.0259 98.0671 33.9249 98.4225 34.7611C98.778 35.5974 99.2623 36.3222 99.879 36.9389C100.496 37.5557 101.214 38.04 102.025 38.3954C102.841 38.7509 103.719 38.9286 104.66 38.9286C105.601 38.9286 106.479 38.7509 107.294 38.3954C108.109 38.04 108.824 37.5557 109.44 36.9389C110.057 36.3222 110.542 35.5974 110.897 34.7611C111.252 33.9249 111.43 33.0259 111.43 32.0641C111.43 31.1024 111.252 30.2034 110.897 29.3672C110.542 28.5309 110.054 27.8061 109.44 27.1894C108.824 26.5726 108.109 26.0883 107.294 25.7329C106.479 25.3774 105.601 25.1997 104.66 25.1997C103.719 25.1997 102.841 25.3774 102.025 25.7329C101.21 26.0883 100.496 26.5761 99.879 27.1894C99.2623 27.8061 98.778 28.5344 98.4225 29.3672C98.0671 30.2034 97.8894 31.1024 97.8894 32.0641Z" fill="black"/>
<path d="M135.17 43.4479H130.842V41.4409H130.779C130.591 41.7127 130.344 41.9879 130.041 42.2702C129.738 42.5524 129.382 42.8068 128.974 43.0368C128.567 43.2667 128.117 43.4549 127.626 43.6013C127.135 43.7476 126.626 43.8208 126.107 43.8208C124.978 43.8208 123.953 43.6256 123.033 43.2389C122.113 42.8521 121.326 42.3085 120.667 41.6081C120.009 40.9078 119.504 40.0784 119.148 39.1167C118.793 38.155 118.615 37.0992 118.615 35.9493C118.615 34.8831 118.775 33.8656 119.099 32.8935C119.423 31.9213 119.883 31.0606 120.479 30.308C121.075 29.5553 121.8 28.956 122.657 28.5065C123.514 28.057 124.486 27.834 125.574 27.834C126.556 27.834 127.469 27.9873 128.316 28.287C129.163 28.5901 129.856 29.1093 130.4 29.8376H130.462V19.743H135.166V43.4479H135.17ZM130.842 35.8274C130.842 34.6775 130.515 33.7472 129.856 33.0363C129.197 32.3255 128.274 31.9701 127.082 31.9701C125.891 31.9701 124.967 32.3255 124.309 33.0363C123.65 33.7472 123.323 34.6775 123.323 35.8274C123.323 36.9773 123.65 37.9076 124.309 38.6185C124.967 39.3293 125.891 39.6847 127.082 39.6847C128.274 39.6847 129.197 39.3293 129.856 38.6185C130.515 37.9076 130.842 36.9773 130.842 35.8274Z" fill="black"/>
<path d="M137.992 28.2103H142.696V30.6564H142.759C143.261 29.7156 143.857 29.0118 144.547 28.5413C145.236 28.0709 146.104 27.8375 147.149 27.8375C147.421 27.8375 147.693 27.8479 147.965 27.8688C148.237 27.8897 148.487 27.9316 148.717 27.9943V32.2906C148.383 32.1861 148.052 32.1095 147.731 32.0572C147.407 32.0049 147.066 31.9805 146.714 31.9805C145.815 31.9805 145.104 32.106 144.581 32.3568C144.059 32.6077 143.658 32.9562 143.376 33.4057C143.094 33.8552 142.912 34.3918 142.829 35.019C142.745 35.6462 142.703 36.3361 142.703 37.0888V43.4549H137.999V28.2103H137.992Z" fill="black"/>
<path d="M159.373 41.535H159.31C158.788 42.3503 158.094 42.9357 157.227 43.2911C156.359 43.6466 155.446 43.8243 154.484 43.8243C153.773 43.8243 153.09 43.7232 152.432 43.5246C151.773 43.326 151.195 43.0298 150.693 42.6326C150.191 42.2353 149.794 41.744 149.501 41.1586C149.209 40.5732 149.062 39.8938 149.062 39.1202C149.062 38.2421 149.223 37.4999 149.547 36.8936C149.871 36.2873 150.31 35.7856 150.864 35.3883C151.418 34.9911 152.049 34.6845 152.759 34.465C153.47 34.2454 154.206 34.0851 154.969 33.9806C155.732 33.8761 156.495 33.8134 157.258 33.7925C158.021 33.7715 158.725 33.7611 159.373 33.7611C159.373 32.9248 159.077 32.2628 158.481 31.7715C157.885 31.2801 157.181 31.0362 156.366 31.0362C155.551 31.0362 154.885 31.1965 154.251 31.5206C153.613 31.8446 153.045 32.2872 152.543 32.8516L150.035 30.2801C150.913 29.4647 151.937 28.8549 153.108 28.4473C154.279 28.0396 155.491 27.8375 156.746 27.8375C158.126 27.8375 159.258 28.0117 160.147 28.3532C161.035 28.6981 161.746 29.2069 162.279 29.8724C162.812 30.5414 163.182 31.3603 163.394 32.3325C163.603 33.3046 163.708 34.4301 163.708 35.7019V43.4479H159.38V41.535H159.373ZM158.213 36.7682C157.857 36.7682 157.415 36.7821 156.882 36.8135C156.348 36.8449 155.836 36.9355 155.345 37.0783C154.854 37.2247 154.435 37.4442 154.091 37.7369C153.746 38.0296 153.575 38.4373 153.575 38.9599C153.575 39.5244 153.815 39.9426 154.296 40.2143C154.777 40.4861 155.279 40.622 155.801 40.622C156.261 40.622 156.704 40.5593 157.132 40.4339C157.561 40.3084 157.941 40.1307 158.279 39.9007C158.613 39.6708 158.878 39.3781 159.077 39.0227C159.275 38.6672 159.373 38.2491 159.373 37.7682V36.7647H158.213V36.7682Z" fill="black"/>
<path d="M165.708 28.2103H170.224V30.2801H170.286C170.433 29.9874 170.642 29.6947 170.914 29.402C171.185 29.1093 171.509 28.848 171.886 28.618C172.262 28.388 172.691 28.1999 173.172 28.0535C173.652 27.9072 174.175 27.834 174.74 27.834C175.931 27.834 176.893 28.0187 177.625 28.3811C178.356 28.7469 178.924 29.2557 179.332 29.9003C179.74 30.5484 180.015 31.3115 180.161 32.1896C180.308 33.0677 180.381 34.0189 180.381 35.0434V43.4479H175.677V35.9842C175.677 35.5451 175.663 35.0922 175.632 34.6218C175.6 34.1514 175.506 33.7193 175.349 33.322C175.193 32.9248 174.952 32.6008 174.628 32.3499C174.304 32.099 173.841 31.9736 173.234 31.9736C172.628 31.9736 172.137 32.0816 171.76 32.3011C171.384 32.5206 171.095 32.8133 170.9 33.1792C170.701 33.5451 170.572 33.9597 170.509 34.4162C170.447 34.8761 170.415 35.357 170.415 35.8587V43.4479H165.711V28.2103H165.708Z" fill="black"/>
<path d="M193.141 31.9701H189.001V37.0504C189.001 37.4686 189.022 37.8484 189.064 38.1933C189.106 38.5383 189.2 38.8345 189.346 39.0854C189.493 39.3363 189.716 39.5314 190.019 39.6673C190.322 39.8032 190.723 39.8694 191.225 39.8694C191.475 39.8694 191.807 39.8415 192.211 39.7892C192.618 39.737 192.925 39.6185 193.134 39.4303V43.3504C192.611 43.5385 192.068 43.664 191.503 43.7267C190.939 43.7894 190.385 43.8208 189.841 43.8208C189.047 43.8208 188.315 43.7371 187.646 43.5699C186.977 43.4026 186.392 43.1343 185.89 42.7719C185.388 42.4061 184.998 41.9322 184.716 41.3468C184.433 40.7614 184.294 40.0506 184.294 39.2143V31.9701H181.283V28.2068H184.294V23.691H188.998V28.2068H193.138V31.9701H193.141Z" fill="black"/>
<path d="M203.455 41.2248H213.801V43.2946H201.197V21.095H203.455V41.2248Z" fill="#40A1D5"/>
<path d="M230.014 35.9563C230.014 37.0644 229.819 38.0888 229.432 39.0296C229.045 39.9704 228.509 40.7858 227.819 41.4757C227.129 42.1656 226.31 42.7023 225.359 43.089C224.407 43.4758 223.355 43.6709 222.209 43.6709C221.062 43.6709 220.041 43.4758 219.09 43.089C218.139 42.7023 217.32 42.1656 216.63 41.4757C215.94 40.7858 215.4 39.9704 215.017 39.0296C214.63 38.0888 214.435 37.0644 214.435 35.9563C214.435 34.8482 214.626 33.8238 215.017 32.883C215.403 31.9422 215.94 31.1268 216.63 30.4369C217.32 29.747 218.139 29.2104 219.09 28.8236C220.041 28.4368 221.08 28.2417 222.209 28.2417C223.338 28.2417 224.407 28.4368 225.359 28.8236C226.31 29.2104 227.129 29.747 227.819 30.4369C228.509 31.1268 229.045 31.9422 229.432 32.883C229.819 33.8238 230.014 34.8482 230.014 35.9563ZM227.756 35.9563C227.756 35.1409 227.623 34.3778 227.366 33.667C227.104 32.9562 226.731 32.3394 226.254 31.8168C225.773 31.2941 225.191 30.8829 224.515 30.5798C223.836 30.2766 223.066 30.1268 222.212 30.1268C221.358 30.1268 220.585 30.2801 219.909 30.5798C219.229 30.8829 218.654 31.2976 218.184 31.8168C217.714 32.3394 217.348 32.9562 217.086 33.667C216.825 34.3778 216.696 35.1409 216.696 35.9563C216.696 36.7717 216.825 37.5348 217.086 38.2456C217.348 38.9564 217.714 39.5732 218.184 40.0959C218.654 40.6185 219.229 41.0332 219.909 41.3329C220.588 41.636 221.355 41.7858 222.212 41.7858C223.069 41.7858 223.836 41.636 224.515 41.3329C225.195 41.0297 225.773 40.6185 226.254 40.0959C226.735 39.5732 227.104 38.9564 227.366 38.2456C227.627 37.5348 227.756 36.7717 227.756 35.9563Z" fill="#40A1D5"/>
<path d="M242.241 34.2942V33.9179C242.241 31.3882 240.986 30.1233 238.478 30.1233C236.763 30.1233 235.268 30.6982 233.993 31.8481L232.739 30.3742C234.119 28.9525 236.188 28.2417 238.948 28.2417C239.659 28.2417 240.342 28.3462 241 28.5553C241.659 28.7644 242.227 29.0849 242.708 29.51C243.189 29.9386 243.575 30.4787 243.868 31.1233C244.161 31.7715 244.307 32.545 244.307 33.444V39.9983C244.307 40.5628 244.332 41.1552 244.384 41.7684C244.436 42.3852 244.495 42.8939 244.558 43.2877H242.551C242.488 42.9322 242.439 42.5455 242.408 42.1273C242.377 41.7092 242.363 41.3015 242.363 40.9043H242.3C241.694 41.8869 240.979 42.5908 240.154 43.0193C239.328 43.4479 238.321 43.6605 237.129 43.6605C236.481 43.6605 235.854 43.5699 235.248 43.3957C234.641 43.218 234.105 42.9462 233.634 42.5803C233.164 42.2144 232.787 41.7649 232.505 41.2318C232.223 40.6987 232.084 40.0784 232.084 39.3676C232.084 38.1759 232.39 37.2421 233.007 36.5626C233.624 35.8831 234.397 35.3779 235.328 35.0434C236.258 34.7089 237.251 34.4998 238.307 34.4162C239.363 34.3325 240.328 34.2907 241.206 34.2907H242.241V34.2942ZM241.175 35.9877C240.652 35.9877 240 36.0155 239.216 36.0643C238.432 36.1166 237.68 36.242 236.958 36.4407C236.237 36.6393 235.62 36.9494 235.108 37.364C234.596 37.7822 234.338 38.3571 234.338 39.0889C234.338 39.5697 234.436 39.9809 234.638 40.3258C234.836 40.6708 235.101 40.9531 235.436 41.1726C235.77 41.3921 236.14 41.5489 236.547 41.643C236.955 41.7371 237.366 41.7858 237.784 41.7858C238.537 41.7858 239.188 41.6604 239.742 41.4095C240.297 41.1586 240.76 40.8206 241.136 40.3921C241.513 39.9635 241.788 39.4617 241.966 38.8868C242.143 38.3118 242.23 37.702 242.23 37.0539V35.9877H241.164H241.175Z" fill="#40A1D5"/>
<path d="M262.81 43.2946H260.74V40.8485H260.677C260.343 41.3503 259.945 41.7789 259.486 42.1343C259.026 42.4897 258.545 42.7824 258.043 43.0124C257.541 43.2424 257.025 43.4096 256.492 43.5141C255.959 43.6187 255.454 43.6709 254.973 43.6709C253.823 43.6709 252.774 43.4758 251.823 43.089C250.872 42.7023 250.053 42.1656 249.363 41.4757C248.673 40.7858 248.133 39.9704 247.75 39.0296C247.363 38.0888 247.171 37.0644 247.171 35.9563C247.171 34.8482 247.363 33.8238 247.75 32.883C248.137 31.9422 248.677 31.1268 249.363 30.4369C250.053 29.747 250.872 29.2104 251.823 28.8236C252.774 28.4368 253.823 28.2417 254.973 28.2417C255.454 28.2417 255.959 28.2939 256.492 28.3985C257.025 28.503 257.541 28.6703 258.043 28.9002C258.545 29.1302 259.026 29.4229 259.486 29.7783C259.945 30.1338 260.343 30.5623 260.677 31.0641H260.74V19.5897H262.81V43.2946ZM249.422 35.9563C249.422 36.7717 249.551 37.5348 249.813 38.2456C250.074 38.9564 250.443 39.5732 250.924 40.0959C251.405 40.6185 251.983 41.0332 252.663 41.3329C253.342 41.636 254.109 41.7858 254.966 41.7858C255.823 41.7858 256.579 41.636 257.301 41.3329C258.022 41.0297 258.642 40.6185 259.165 40.0959C259.688 39.5732 260.095 38.9564 260.388 38.2456C260.681 37.5348 260.827 36.7717 260.827 35.9563C260.827 35.1409 260.681 34.3778 260.388 33.667C260.095 32.9562 259.688 32.3394 259.165 31.8168C258.642 31.2941 258.019 30.8829 257.301 30.5798C256.579 30.2766 255.802 30.1268 254.966 30.1268C254.13 30.1268 253.339 30.2801 252.663 30.5798C251.983 30.8829 251.402 31.2976 250.924 31.8168C250.443 32.3394 250.07 32.9562 249.813 33.667C249.551 34.3778 249.422 35.1409 249.422 35.9563Z" fill="#40A1D5"/>
<path d="M267.827 36.5208C267.89 37.2525 268.068 37.9425 268.36 38.5906C268.653 39.2387 269.04 39.7962 269.521 40.2666C270.002 40.737 270.556 41.1099 271.183 41.3782C271.81 41.6499 272.49 41.7858 273.221 41.7858C274.329 41.7858 275.284 41.5315 276.089 41.0193C276.894 40.507 277.504 39.9182 277.922 39.2491L279.521 40.5663C278.643 41.6743 277.678 42.4688 276.622 42.9497C275.566 43.4305 274.43 43.6709 273.221 43.6709C272.134 43.6709 271.124 43.4758 270.197 43.089C269.266 42.7023 268.469 42.1656 267.799 41.4757C267.13 40.7858 266.601 39.9704 266.218 39.0296C265.831 38.0888 265.636 37.0644 265.636 35.9563C265.636 34.8482 265.824 33.8238 266.2 32.883C266.576 31.9422 267.099 31.1268 267.768 30.4369C268.437 29.747 269.221 29.2104 270.12 28.8236C271.019 28.4368 271.991 28.2417 273.037 28.2417C274.145 28.2417 275.138 28.4403 276.016 28.8375C276.894 29.2348 277.629 29.7609 278.225 30.4195C278.821 31.078 279.274 31.8516 279.591 32.7401C279.905 33.6287 280.061 34.573 280.061 35.5765V36.5173H267.834L267.827 36.5208ZM277.796 34.8273C277.796 33.4266 277.378 32.2941 276.542 31.4265C275.706 30.5589 274.535 30.1268 273.03 30.1268C272.361 30.1268 271.713 30.2592 271.085 30.517C270.458 30.7784 269.908 31.1268 269.441 31.5659C268.974 32.0049 268.594 32.5067 268.312 33.0712C268.029 33.6356 267.89 34.221 267.89 34.8273H277.796Z" fill="#40A1D5"/>
<path d="M283.096 33.1966C283.096 32.5485 283.082 31.8899 283.051 31.2209C283.02 30.5519 282.992 29.6843 282.974 28.618H285.013V31.3463H285.076C285.222 30.9491 285.431 30.5693 285.703 30.2C285.975 29.8341 286.302 29.5065 286.689 29.2138C287.076 28.9212 287.525 28.6877 288.037 28.51C288.55 28.3323 289.128 28.2417 289.776 28.2417C290.361 28.2417 290.874 28.3044 291.313 28.4298L290.905 30.4683C290.633 30.3637 290.236 30.3115 289.713 30.3115C288.919 30.3115 288.239 30.4648 287.675 30.7644C287.11 31.0676 286.64 31.4544 286.264 31.9248C285.887 32.3952 285.609 32.9039 285.434 33.444C285.257 33.9876 285.17 34.5103 285.17 35.012V43.2911H283.1V33.1966H283.096Z" fill="#40A1D5"/>
</g>
<g clip-path="url(#clip2_28030_3)">
<path d="M92.8091 65.3026L96.3528 55.4729H97.9591L101.503 65.3026H100.2L99.217 62.5046H95.0949L94.1122 65.3026H92.8091ZM95.4956 61.3442H98.8198L97.1577 56.5113L95.4956 61.3442ZM106.35 67.3793V57.9643H107.43L107.458 59.5427L107.291 59.4591C107.475 58.9155 107.778 58.5044 108.203 58.2256C108.639 57.9399 109.137 57.797 109.698 57.797C110.427 57.797 111.022 57.9782 111.486 58.3371C111.956 58.696 112.301 59.1664 112.524 59.7483C112.754 60.3302 112.869 60.9574 112.869 61.6299C112.869 62.3025 112.754 62.9331 112.524 63.5116C112.301 64.0935 111.956 64.5639 111.486 64.9228C111.026 65.2817 110.43 65.4629 109.698 65.4629C109.319 65.4629 108.963 65.3967 108.632 65.2677C108.308 65.1388 108.033 64.9576 107.803 64.7276C107.58 64.4977 107.43 64.2259 107.346 63.9123L107.514 63.7171V67.3724H106.35V67.3793ZM109.59 64.3618C110.228 64.3618 110.73 64.1213 111.099 63.6405C111.468 63.1596 111.653 62.4906 111.653 61.6334C111.653 60.7763 111.468 60.1072 111.099 59.6264C110.73 59.1455 110.228 58.9051 109.59 58.9051C109.165 58.9051 108.796 59.0061 108.482 59.2082C108.179 59.4103 107.939 59.717 107.761 60.1212C107.594 60.5289 107.51 61.0306 107.51 61.6299C107.51 62.2293 107.594 62.7345 107.761 63.1387C107.928 63.5464 108.169 63.8496 108.482 64.0517C108.796 64.2538 109.165 64.3548 109.59 64.3548V64.3618ZM114.448 65.3026V57.9643H115.472L115.528 59.818L115.416 59.7762C115.507 59.149 115.706 58.6925 116.012 58.4068C116.326 58.1106 116.74 57.9643 117.26 57.9643H117.981V59.0723H117.274C116.904 59.0723 116.594 59.142 116.347 59.2814C116.106 59.4103 115.922 59.6089 115.793 59.8773C115.674 60.1351 115.611 60.4696 115.611 60.8738V65.3061H114.448V65.3026ZM122.005 65.4698C121.333 65.4698 120.741 65.313 120.232 64.9994C119.723 64.6858 119.333 64.2433 119.054 63.6718C118.779 63.0899 118.639 62.4105 118.639 61.6369C118.639 60.8634 118.779 60.1734 119.054 59.602C119.329 59.0305 119.723 58.588 120.232 58.2744C120.741 57.9608 121.329 57.804 122.005 57.804C122.681 57.804 123.267 57.9608 123.765 58.2744C124.274 58.588 124.664 59.0305 124.943 59.602C125.218 60.1734 125.358 60.8529 125.358 61.6369C125.358 62.4209 125.218 63.0899 124.943 63.6718C124.668 64.2433 124.274 64.6858 123.765 64.9994C123.267 65.313 122.681 65.4698 122.005 65.4698ZM122.005 64.3618C122.678 64.3618 123.201 64.1213 123.57 63.6405C123.95 63.1527 124.138 62.4836 124.138 61.6334C124.138 60.7832 123.95 60.1212 123.57 59.6403C123.201 59.1525 122.678 58.9051 122.005 58.9051C121.333 58.9051 120.807 59.149 120.427 59.6403C120.047 60.1212 119.859 60.7832 119.859 61.6334C119.859 62.4836 120.047 63.1527 120.427 63.6405C120.807 64.1213 121.333 64.3618 122.005 64.3618ZM125.765 67.3793V66.3549H126.361C126.602 66.3549 126.793 66.2957 126.943 66.1737C127.089 66.0622 127.166 65.8566 127.166 65.55V57.9643H128.33V65.6057C128.33 66.2504 128.187 66.7103 127.901 66.9751C127.615 67.2434 127.138 67.3758 126.476 67.3758H125.769L125.765 67.3793ZM127.138 56.8144V55.4589H128.358V56.8144H127.138ZM133.271 65.4698C132.577 65.4698 131.978 65.313 131.469 64.9994C130.971 64.6858 130.584 64.2433 130.306 63.6718C130.037 63.0899 129.905 62.4105 129.905 61.6369C129.905 60.8634 130.037 60.1874 130.306 59.6159C130.581 59.0445 130.964 58.6019 131.455 58.2883C131.954 57.9643 132.539 57.804 133.215 57.804C133.853 57.804 134.414 57.9573 134.905 58.2605C135.393 58.5566 135.773 58.9887 136.041 59.5637C136.316 60.1351 136.456 60.832 136.456 61.6543V61.9993H131.124C131.17 62.7833 131.379 63.3757 131.748 63.7729C132.128 64.1701 132.633 64.3687 133.271 64.3687C133.752 64.3687 134.142 64.2572 134.449 64.0377C134.762 63.8077 134.978 63.5081 135.1 63.1387L136.348 63.2363C136.152 63.8914 135.787 64.4315 135.24 64.8566C134.703 65.2712 134.048 65.4803 133.274 65.4803L133.271 65.4698ZM131.124 60.9679H135.18C135.125 60.2571 134.919 59.7344 134.557 59.4034C134.205 59.0723 133.759 58.9051 133.215 58.9051C132.671 58.9051 132.187 59.0793 131.818 59.4312C131.459 59.7727 131.225 60.2849 131.124 60.9679ZM140.898 65.4698C140.215 65.4698 139.62 65.313 139.111 64.9994C138.612 64.6858 138.226 64.2433 137.947 63.6718C137.672 63.0899 137.532 62.4105 137.532 61.6369C137.532 60.8634 137.672 60.1874 137.947 59.6159C138.222 59.0445 138.612 58.6019 139.111 58.2883C139.62 57.9643 140.212 57.804 140.898 57.804C141.459 57.804 141.961 57.905 142.393 58.1071C142.836 58.3023 143.195 58.588 143.473 58.9643C143.749 59.3441 143.93 59.8041 144.013 60.3477L142.794 60.4313C142.71 59.9435 142.498 59.5671 142.156 59.3093C141.815 59.041 141.393 58.9086 140.895 58.9086C140.219 58.9086 139.693 59.1525 139.316 59.6438C138.937 60.1247 138.748 60.7867 138.748 61.6369C138.748 62.4871 138.937 63.1561 139.316 63.644C139.693 64.1248 140.219 64.3653 140.895 64.3653C141.393 64.3653 141.811 64.2259 142.156 63.9506C142.498 63.6753 142.71 63.2572 142.794 62.7032L144.013 62.7868C143.93 63.3304 143.752 63.8077 143.473 64.2119C143.198 64.6092 142.836 64.9193 142.393 65.1388C141.958 65.3618 141.459 65.4698 140.898 65.4698ZM147.857 65.3026C147.191 65.3026 146.696 65.1493 146.376 64.8461C146.062 64.543 145.906 64.0656 145.906 63.421V56.2464H147.069V63.3896C147.069 63.7206 147.142 63.9541 147.292 64.083C147.439 64.2119 147.665 64.2781 147.972 64.2781H149.024V65.3026H147.86H147.857ZM144.825 58.9887V57.9643H149.021V58.9887H144.825ZM156.92 65.4698C156.247 65.4698 155.655 65.313 155.146 64.9994C154.638 64.6858 154.247 64.2433 153.969 63.6718C153.693 63.0899 153.554 62.4105 153.554 61.6369C153.554 60.8634 153.693 60.1734 153.969 59.602C154.244 59.0305 154.638 58.588 155.146 58.2744C155.655 57.9608 156.244 57.804 156.92 57.804C157.596 57.804 158.181 57.9608 158.68 58.2744C159.188 58.588 159.579 59.0305 159.857 59.602C160.133 60.1734 160.272 60.8529 160.272 61.6369C160.272 62.4209 160.133 63.0899 159.857 63.6718C159.582 64.2433 159.188 64.6858 158.68 64.9994C158.181 65.313 157.596 65.4698 156.92 65.4698ZM156.92 64.3618C157.592 64.3618 158.115 64.1213 158.484 63.6405C158.864 63.1527 159.052 62.4836 159.052 61.6334C159.052 60.7832 158.864 60.1212 158.484 59.6403C158.115 59.1525 157.592 58.9051 156.92 58.9051C156.247 58.9051 155.721 59.149 155.341 59.6403C154.962 60.1212 154.773 60.7832 154.773 61.6334C154.773 62.4836 154.962 63.1527 155.341 63.6405C155.721 64.1213 156.247 64.3618 156.92 64.3618ZM162.293 65.3026V57.2987C162.293 56.7552 162.45 56.3161 162.763 55.9851C163.077 55.6436 163.565 55.4729 164.23 55.4729H165.394V56.4973H164.314C164.028 56.4973 163.812 56.5775 163.662 56.7343C163.523 56.8911 163.453 57.1071 163.453 57.3859V65.3061H162.29L162.293 65.3026ZM161.293 58.9887V57.9643H165.293V58.9887H161.293Z" fill="#1C1C1C"/>
<path d="M198.789 55.33H202.424L203.326 61.4418H203.636L204.894 55.33H207.713L208.981 61.4418H209.292L210.18 55.33H213.828L211.992 65.2852H207.145L206.455 60.9958H206.145L205.455 65.2852H200.619L198.782 55.33H198.789Z" fill="#1C1B1A"/>
<path d="M170.084 60.3058C170.084 57.0792 172.335 54.9746 175.747 54.9746C178.255 54.9746 180.851 56.0827 181.127 59.6055H177.698C177.475 58.5706 176.768 58.0827 175.747 58.0827C174.593 58.0827 173.649 58.926 173.649 60.3058C173.649 61.6857 174.59 62.5289 175.747 62.5289C176.768 62.5289 177.468 62.0411 177.698 60.9853H181.127C180.851 64.536 178.294 65.6371 175.747 65.6371C172.328 65.6371 170.084 63.529 170.084 60.3058Z" fill="#1C1B1A"/>
<path d="M190.834 62.4174C190.834 64.0656 189.719 65.2852 186.531 65.2852H180.322V55.33H186.764C189.82 55.33 190.58 56.6924 190.58 57.9608C190.58 59.2291 190.012 59.5741 189.333 59.9783V60.1909C190.388 60.6264 190.827 61.3268 190.827 62.4209H190.834V62.4174ZM183.9 58.1559V59.3615H186.329C187.054 59.3615 187.155 58.8842 187.155 58.7692C187.155 58.5566 187.047 58.1559 186.329 58.1559H183.9ZM187.211 61.9714C187.211 61.7589 187.089 61.3338 186.385 61.3338H183.911V62.637H186.385C187.096 62.637 187.211 62.1491 187.211 61.9714Z" fill="#1C1B1A"/>
<path d="M200.215 58.3162H196.681V65.2817H193.092V58.3162H189.573V55.33H200.211V58.3162H200.218H200.215Z" fill="#1C1B1A"/>
</g>
<defs>
<clipPath id="clip0_28030_3">
<rect width="78.8711" height="80.0001" fill="white"/>
</clipPath>
<clipPath id="clip1_28030_3">
<rect width="198.504" height="24.2345" fill="white" transform="translate(92.8091 19.5897)"/>
</clipPath>
<clipPath id="clip2_28030_3">
<rect width="121.023" height="12.4047" fill="white" transform="translate(92.8091 54.9746)"/>
</clipPath>
</defs>
</svg>
