<svg width="32" height="32" viewBox="0 0 32 32" fill="none" xmlns="http://www.w3.org/2000/svg">
  <path d="M27.9812 5.89001C27.9516 5.40242 27.7446 4.94253 27.3991 4.59712C27.0537 4.2517 26.5938 4.04464 26.1062 4.01501C24.5337 3.92126 20.515 4.06501 17.18 7.39876L16.5862 8.00001H9.29499C9.03134 7.99853 8.77002 8.04948 8.52624 8.14991C8.28246 8.25034 8.06108 8.39824 7.87499 8.58501L3.58749 12.875C3.32455 13.1378 3.14004 13.4686 3.05467 13.8304C2.96931 14.1922 2.98646 14.5706 3.1042 14.9232C3.22195 15.2758 3.43563 15.5886 3.72126 15.8265C4.00689 16.0644 4.35317 16.218 4.72124 16.27L9.52999 16.9413L15.0562 22.4675L15.7275 27.2788C15.7791 27.6468 15.9327 27.9932 16.1708 28.2786C16.4089 28.5639 16.7221 28.777 17.075 28.8938C17.2805 28.9624 17.4958 28.9975 17.7125 28.9975C17.9749 28.998 18.2348 28.9466 18.4772 28.8462C18.7196 28.7458 18.9398 28.5984 19.125 28.4125L23.415 24.125C23.6018 23.9389 23.7497 23.7175 23.8501 23.4738C23.9505 23.23 24.0015 22.9687 24 22.705V15.4138L24.5962 14.8175C27.9312 11.4825 28.075 7.46376 27.9812 5.89001ZM9.29499 10H14.5862L9.64499 14.94L4.99999 14.2925L9.29499 10ZM18.5962 8.81876C19.5571 7.85193 20.7133 7.10127 21.9875 6.61691C23.2616 6.13255 24.6245 5.92565 25.985 6.01001C26.0726 7.37124 25.8679 8.73545 25.3845 10.011C24.9011 11.2865 24.1503 12.4438 23.1825 13.405L16 20.585L11.415 16L18.5962 8.81876ZM22 22.705L17.7087 27L17.06 22.3538L22 17.4138V22.705ZM12.73 23.8925C12.1675 25.125 10.2862 28 4.99999 28C4.73477 28 4.48042 27.8947 4.29288 27.7071C4.10535 27.5196 3.99999 27.2652 3.99999 27C3.99999 21.7138 6.87499 19.8325 8.10749 19.2688C8.22699 19.2143 8.35606 19.1838 8.48732 19.1792C8.61858 19.1746 8.74947 19.1959 8.87251 19.2418C8.99554 19.2878 9.10832 19.3576 9.2044 19.4471C9.30049 19.5367 9.37799 19.6443 9.43249 19.7638C9.48699 19.8833 9.51741 20.0123 9.52203 20.1436C9.52665 20.2749 9.50537 20.4057 9.4594 20.5288C9.41344 20.6518 9.34369 20.7646 9.25414 20.8607C9.16459 20.9568 9.05699 21.0343 8.93749 21.0888C8.13374 21.455 6.35999 22.6338 6.04749 25.9525C9.36624 25.64 10.5475 23.8663 10.9112 23.0625C10.9657 22.943 11.0432 22.8354 11.1393 22.7459C11.2354 22.6563 11.3482 22.5866 11.4712 22.5406C11.5943 22.4946 11.7251 22.4734 11.8564 22.478C11.9877 22.4826 12.1167 22.513 12.2362 22.5675C12.3557 22.622 12.4633 22.6995 12.5529 22.7956C12.6424 22.8917 12.7122 23.0045 12.7582 23.1275C12.8041 23.2505 12.8254 23.3814 12.8208 23.5127C12.8162 23.6439 12.7857 23.773 12.7312 23.8925H12.73Z" fill="#1C1C1C" />
</svg>