<svg width="32" height="32" viewBox="0 0 20 20" fill="none" xmlns="http://www.w3.org/2000/svg">
  <path d="M17.7157 5.39064C17.6778 5.29693 17.6177 5.21382 17.5406 5.14843C17.4636 5.08304 17.3718 5.03733 17.2731 5.0152C17.1745 4.99308 17.072 4.99521 16.9743 5.02141C16.8767 5.04761 16.7869 5.0971 16.7126 5.16564L13.5642 8.07111L12.2181 7.78204L11.929 6.43595L14.8345 3.28751C14.903 3.21321 14.9525 3.12339 14.9787 3.02576C15.0049 2.92814 15.007 2.82561 14.9849 2.72697C14.9628 2.62834 14.9171 2.53655 14.8517 2.45946C14.7863 2.38238 14.7032 2.3223 14.6095 2.28439C13.7555 1.93895 12.8298 1.80852 11.9136 1.90456C10.9975 2.0006 10.1189 2.32018 9.35516 2.83521C8.59141 3.35024 7.96583 4.04496 7.5334 4.85833C7.10096 5.67171 6.87491 6.57883 6.87509 7.50001C6.87408 8.27789 7.03366 9.0476 7.34384 9.76095L2.63993 13.8281C2.62822 13.8375 2.61728 13.8485 2.60634 13.8586C2.13745 14.3275 1.87402 14.9635 1.87402 15.6266C1.87402 15.9549 1.9387 16.28 2.06435 16.5834C2.19 16.8867 2.37417 17.1624 2.60634 17.3945C2.83851 17.6267 3.11414 17.8109 3.41749 17.9365C3.72084 18.0622 4.04597 18.1269 4.37431 18.1269C5.03743 18.1269 5.67338 17.8634 6.14228 17.3945C6.15243 17.3844 6.16337 17.3727 6.17275 17.3617L10.2392 12.6563C11.0957 13.0323 12.0326 13.1887 12.9649 13.1114C13.8971 13.0341 14.7954 12.7255 15.5784 12.2136C16.3614 11.7016 17.0043 11.0025 17.449 10.1795C17.8936 9.35644 18.126 8.43549 18.1251 7.50001C18.1263 6.77703 17.9873 6.06068 17.7157 5.39064ZM12.5001 11.875C11.7603 11.874 11.0328 11.6859 10.3852 11.3281C10.2598 11.2588 10.1143 11.2348 9.97324 11.2599C9.83214 11.2851 9.70399 11.358 9.61025 11.4664L5.24306 16.5242C5.00673 16.7488 4.69204 16.8721 4.36609 16.8679C4.04014 16.8637 3.72871 16.7324 3.49821 16.5019C3.26771 16.2714 3.13637 15.96 3.1322 15.634C3.12802 15.3081 3.25135 14.9934 3.47587 14.757L8.52978 10.3906C8.63838 10.2969 8.7114 10.1686 8.73658 10.0273C8.76176 9.88602 8.73757 9.74039 8.66806 9.61486C8.26964 8.89426 8.08267 8.07587 8.12863 7.25375C8.17459 6.43163 8.45162 5.63917 8.92787 4.96748C9.40412 4.29578 10.0603 3.77212 10.8208 3.45669C11.5814 3.14127 12.4156 3.04688 13.2274 3.18439L10.7899 5.82579C10.7221 5.89937 10.6729 5.98815 10.6466 6.08467C10.6202 6.1812 10.6174 6.28264 10.6384 6.38048L11.0806 8.43751C11.1059 8.55516 11.1646 8.66301 11.2497 8.7481C11.3348 8.83319 11.4426 8.89191 11.5602 8.9172L13.6188 9.35939C13.7167 9.38037 13.8181 9.37756 13.9146 9.35119C14.0112 9.32481 14.1 9.27565 14.1735 9.20783L16.8149 6.77033C16.9202 7.39768 16.8876 8.04043 16.7193 8.6539C16.5511 9.26737 16.2512 9.83681 15.8405 10.3226C15.4299 10.8085 14.9183 11.199 14.3414 11.4671C13.7646 11.7352 13.1362 11.8744 12.5001 11.875Z" fill="#343330" />
</svg>